<svg xmlns="http://www.w3.org/2000/svg" width="196" height="196" style="overflow: visible;" viewBox="88.11 170.95 94.52 120.58" data-svgdocument="" id="_gF5iky7zhpYWQa0iTxeUw" class="fl-svgdocument" x="0" y="0">
    <defs transform="matrix(0.7944615874921337, 0, 0, 0.7944615874921337, -40.93520548634002, 187.25026502801762)" data-uid="o_ejd2l724f_5"></defs>
    <g transform="matrix(0.8842643049223078, 0, 0, 0.8842643049223078, 68.39636996425779, 7.815797931538498)" data-uid="o_ejd2l724f_6">
        <path d="M59.888,107.756h-5.675l0.016-0.001c0,0-0.012,0-0.028,0.001h-0.104c-0.747-0.013-4.443-0.332-4.443-5.418v1.422   L49.26,80.215c0.64-3.294,3.768-4.484,3.768-4.484l10.234-8.91c1.204-0.963-0.241-3.131-0.241-3.131   c-1.444-1.685-3.612-0.602-3.612-0.602s-2.769,2.408-4.575,3.372c-4.042,2.156-5.636-3.097-5.87-3.97L48.33,24.621   c0-2.826-0.846-5.117-3.672-5.117c-2.826,0-3.672,2.291-3.672,5.117l-0.388,23.182l0.027-4.099c0,0-0.535,6.562-4.937,4.214   c-1.806-0.963-4.575-3.372-4.575-3.372s-2.167-1.083-3.612,0.602c0,0-1.445,2.167-0.241,3.13l10.234,8.909   c0,0,2.317,1.165,2.884,3.717l-0.379,22.667c-0.604,1.744-2.031,4.235-5.036,2.633c-1.806-0.964-4.575-3.372-4.575-3.372   s-2.167-1.083-3.612,0.602c0,0-1.445,2.167-0.241,3.131l10.234,8.909c0,0,2.444,1.232,2.953,4.646l-0.07,4.17   c-1.031,3.463-4.927,3.464-4.927,3.464h-5.539c-2.194,0-3.973,1.779-3.973,3.974s1.779,3.973,3.973,3.973h30.702   c2.194,0,3.973-1.779,3.973-3.973S62.083,107.756,59.888,107.756z" stroke="none" fill="#404a46" transform="matrix(1.183720350265503, 0, 0, 1.183720350265503, 22.630590438842773, 183.893798828125)" stroke-width="1" data-uid="o_ejd2l724f_7"></path>
        <path d="M42.454,0.228c-4.298,0.588-10.409,3.112-15.141,7.777c-5.408,5.332-5.051,10.027-5.051,10.027   c0,4.165,2.705,5.725,4.574,6.105c0.886,0.181,3.619,0,3.619,0s4.374,0.116,4.374-4.596c0,0,0-6.17,8.865-6.17   c0,0,10.882-1.571,10.882,9.874v14.361c0,0-0.56,4.375,4.489,4.375c0,0,6.078,0.28,8.078,0c2.759-0.385,6.865-2.18,6.865-8.096   c0,0,0.836-16.24-7.842-24.297C56.159,0.3,48.257-0.565,42.454,0.228z" stroke="none" fill="#6875f5" transform="matrix(1.183720350265503, 0, 0, 1.183720350265503, 23.170488357543945, 184.49000549316406)" stroke-width="1" data-uid="o_ejd2l724f_8"></path>
        <path d="M25.037,39.196h4.093c0,0,3.059-0.667,3.059-4.037c0-1.793-4.983-7.103-15.687-5.828   c-4.33,0.516-13.082,4.125-14.526,14.021c-0.694,4.753,1.608,13.628,9.556,16.793c0,0,9.29,0.121,13.625,0   c0.71-0.02,1.662-0.917,1.686-2.288c0.013-0.736-0.48-2.183-1.806-2.528c-1.607-0.419-4.576-1.806-4.696-7.585v-1.926   C20.341,45.818,20.22,40.52,25.037,39.196z" stroke="none" fill="#b76bff" transform="matrix(1.183720350265503, 0, 0, 1.183720350265503, 23.050065994262695, 183.7379608154297)" stroke-width="1" data-uid="o_ejd2l724f_9"></path>
        <path d="M23.922,94.392c-1.659-0.432-4.723-1.864-4.848-7.829v-1.988c0,0-0.124-5.467,4.848-6.834h4.224   c0,0,3.158-0.688,3.158-4.167c0-1.851-5.143-7.33-16.19-6.016C10.644,68.09,1.611,71.816,0.12,82.03   c-0.715,4.905,1.661,14.066,9.864,17.332c0,0,9.588,0.124,14.062,0c0.733-0.021,1.716-0.946,1.739-2.361   C25.799,96.242,25.29,94.748,23.922,94.392z" stroke="none" fill="#f5ac68" transform="matrix(1.183720350265503, 0, 0, 1.183720350265503, 22.291282653808594, 184.0677490234375)" stroke-width="1" data-uid="o_ejd2l724f_10"></path>
        <path d="M74.887,47.383c-11.047-1.315-16.19,4.165-16.19,6.015c0,3.479,3.158,4.167,3.158,4.167h4.224   c4.971,1.366,4.848,6.834,4.848,6.834v1.988c-0.125,5.966-3.189,7.397-4.848,7.829c-1.368,0.357-1.877,1.85-1.863,2.609   c0.023,1.415,1.006,2.34,1.739,2.361c4.474,0.124,14.062,0,14.062,0c8.203-3.267,10.579-12.427,9.864-17.333   C88.389,51.641,79.356,47.915,74.887,47.383z" stroke="none" fill="#ff6b5e" transform="matrix(1.183720350265503, 0, 0, 1.183720350265503, 22.649574279785142, 182.22377784093385)" stroke-width="1" data-uid="o_ejd2l724f_11"></path>
    </g>
</svg>
