<svg xmlns="http://www.w3.org/2000/svg" width="512" height="196" style="overflow: visible;" viewBox="88.11 170.95 302.9 120.58" data-svgdocument="" id="_gF5iky7zhpYWQa0iTxeUw" class="fl-svgdocument" x="0" y="0">
    <defs transform="matrix(0.7944615874921337, 0, 0, 0.7944615874921337, -40.93520548634002, 187.25026502801762)" data-uid="o_ejd2l724f_5"></defs>
    <g transform="matrix(0.8842643049223078, 0, 0, 0.8842643049223078, 68.39636996425779, 7.815797931538498)" data-uid="o_ejd2l724f_6">
        <path d="M59.888,107.756h-5.675l0.016-0.001c0,0-0.012,0-0.028,0.001h-0.104c-0.747-0.013-4.443-0.332-4.443-5.418v1.422   L49.26,80.215c0.64-3.294,3.768-4.484,3.768-4.484l10.234-8.91c1.204-0.963-0.241-3.131-0.241-3.131   c-1.444-1.685-3.612-0.602-3.612-0.602s-2.769,2.408-4.575,3.372c-4.042,2.156-5.636-3.097-5.87-3.97L48.33,24.621   c0-2.826-0.846-5.117-3.672-5.117c-2.826,0-3.672,2.291-3.672,5.117l-0.388,23.182l0.027-4.099c0,0-0.535,6.562-4.937,4.214   c-1.806-0.963-4.575-3.372-4.575-3.372s-2.167-1.083-3.612,0.602c0,0-1.445,2.167-0.241,3.13l10.234,8.909   c0,0,2.317,1.165,2.884,3.717l-0.379,22.667c-0.604,1.744-2.031,4.235-5.036,2.633c-1.806-0.964-4.575-3.372-4.575-3.372   s-2.167-1.083-3.612,0.602c0,0-1.445,2.167-0.241,3.131l10.234,8.909c0,0,2.444,1.232,2.953,4.646l-0.07,4.17   c-1.031,3.463-4.927,3.464-4.927,3.464h-5.539c-2.194,0-3.973,1.779-3.973,3.974s1.779,3.973,3.973,3.973h30.702   c2.194,0,3.973-1.779,3.973-3.973S62.083,107.756,59.888,107.756z" stroke="none" fill="#000000" transform="matrix(1.183720350265503, 0, 0, 1.183720350265503, 22.630590438842773, 183.893798828125)" stroke-width="1" data-uid="o_ejd2l724f_7"></path>
        <path d="M42.454,0.228c-4.298,0.588-10.409,3.112-15.141,7.777c-5.408,5.332-5.051,10.027-5.051,10.027   c0,4.165,2.705,5.725,4.574,6.105c0.886,0.181,3.619,0,3.619,0s4.374,0.116,4.374-4.596c0,0,0-6.17,8.865-6.17   c0,0,10.882-1.571,10.882,9.874v14.361c0,0-0.56,4.375,4.489,4.375c0,0,6.078,0.28,8.078,0c2.759-0.385,6.865-2.18,6.865-8.096   c0,0,0.836-16.24-7.842-24.297C56.159,0.3,48.257-0.565,42.454,0.228z" stroke="none" fill="#6875f5" transform="matrix(1.183720350265503, 0, 0, 1.183720350265503, 23.170488357543945, 184.49000549316406)" stroke-width="1" data-uid="o_ejd2l724f_8"></path>
        <path d="M25.037,39.196h4.093c0,0,3.059-0.667,3.059-4.037c0-1.793-4.983-7.103-15.687-5.828   c-4.33,0.516-13.082,4.125-14.526,14.021c-0.694,4.753,1.608,13.628,9.556,16.793c0,0,9.29,0.121,13.625,0   c0.71-0.02,1.662-0.917,1.686-2.288c0.013-0.736-0.48-2.183-1.806-2.528c-1.607-0.419-4.576-1.806-4.696-7.585v-1.926   C20.341,45.818,20.22,40.52,25.037,39.196z" stroke="none" fill="#b76bff" transform="matrix(1.183720350265503, 0, 0, 1.183720350265503, 23.050065994262695, 183.7379608154297)" stroke-width="1" data-uid="o_ejd2l724f_9"></path>
        <path d="M23.922,94.392c-1.659-0.432-4.723-1.864-4.848-7.829v-1.988c0,0-0.124-5.467,4.848-6.834h4.224   c0,0,3.158-0.688,3.158-4.167c0-1.851-5.143-7.33-16.19-6.016C10.644,68.09,1.611,71.816,0.12,82.03   c-0.715,4.905,1.661,14.066,9.864,17.332c0,0,9.588,0.124,14.062,0c0.733-0.021,1.716-0.946,1.739-2.361   C25.799,96.242,25.29,94.748,23.922,94.392z" stroke="none" fill="#f5ac68" transform="matrix(1.183720350265503, 0, 0, 1.183720350265503, 22.291282653808594, 184.0677490234375)" stroke-width="1" data-uid="o_ejd2l724f_10"></path>
        <path d="M74.887,47.383c-11.047-1.315-16.19,4.165-16.19,6.015c0,3.479,3.158,4.167,3.158,4.167h4.224   c4.971,1.366,4.848,6.834,4.848,6.834v1.988c-0.125,5.966-3.189,7.397-4.848,7.829c-1.368,0.357-1.877,1.85-1.863,2.609   c0.023,1.415,1.006,2.34,1.739,2.361c4.474,0.124,14.062,0,14.062,0c8.203-3.267,10.579-12.427,9.864-17.333   C88.389,51.641,79.356,47.915,74.887,47.383z" stroke="none" fill="#ff6b5e" transform="matrix(1.183720350265503, 0, 0, 1.183720350265503, 22.649574279785142, 182.22377784093385)" stroke-width="1" data-uid="o_ejd2l724f_11"></path>
    </g>
    <path id="_VeJDs572SUOh1EKprQBTg" fill="#000000" transform="matrix(0.6504736199237524, 0, 0, 0.6504736199237524, 197.03907350887044, 251.96120691006044)" text="terms" text-anchor="start" font-size="100" letter-spacing="0" side="left" offset="0" dx="0" dy="0" space="preserve" href="" font-family="Coiny" font-scale="contain" x="0" y="0" data-fl-textpath="" data-uid="o_ejd2l724f_12" d="M 9.6-21.4L 9.6-21.4L 9.6-33.2Q 7.1-33.3  5.6-34.05Q 4.1-34.8  3.45-36Q 2.8-37.2  2.8-39L 2.8-39Q 2.8-44.7  9.7-45.2L 9.7-45.2L 9.7-54.5Q 9.7-58.3  15.2-61.35Q 20.7-64.4  26.1-64.4L 26.1-64.4Q 29.4-64.4  30.4-62.5Q 31.4-60.6  31.4-56.8L 31.4-56.8L 31.5-45.3L 34.2-45.3Q 39.7-45.3  41.75-43.85Q 43.8-42.4  43.8-38.6L 43.8-38.6Q 43.8-37  43.2-35.9Q 42.6-34.8  41.25-34.2Q 39.9-33.6  38-33.35Q 36.1-33.1  33.3-33.1L 33.3-33.1L 31.5-33.1L 31.5-22.1Q 31.5-20.5  31.65-19.45Q 31.8-18.4  32.1-17.8Q 32.4-17.2  32.95-17Q 33.5-16.8  34.3-16.8L 34.3-16.8Q 35.5-16.8  36.3-17.65Q 37.1-18.5  37.55-19.55Q 38-20.6  38.75-21.45Q 39.5-22.3  40.5-22.3L 40.5-22.3Q 42.8-22.3  44.05-21.2Q 45.3-20.1  45.3-18.5L 45.3-18.5Q 45.3-15.8  44.25-12.7Q 43.2-9.6  41.2-6.7Q 39.2-3.8  35.65-1.9Q 32.1 0  27.7 0L 27.7 0Q 17.8 0  13.7-5Q 9.6-10  9.6-21.4ZM 80.69999999999999 0.6L 80.69999999999999 0.6Q 68.5 0.6  60.55-5.7Q 52.599999999999994-12  52.599999999999994-22.9L 52.599999999999994-22.9Q 52.599999999999994-34.7  60.449999999999996-41.55Q 68.3-48.4  80.69999999999999-48.4L 80.69999999999999-48.4Q 92.39999999999999-48.4  97.85-44.25Q 103.3-40.1  103.3-32.9L 103.3-32.9Q 103.3-31.5  102.94999999999999-30.2Q 102.6-28.9  101.85-27.65Q 101.1-26.4  99.85-25.35Q 98.6-24.3  97-23.45Q 95.39999999999999-22.6  93.19999999999999-22.15Q 91-21.7  88.5-21.7L 88.5-21.7L 74.39999999999999-21.6Q 75.39999999999999-18.4  78-16.55Q 80.6-14.7  84.6-14.7L 84.6-14.7Q 88.89999999999999-14.7  93.39999999999999-15.8L 93.39999999999999-15.8Q 95.3-16.3  97.55-17.4Q 99.8-18.5  100.8-18.5L 100.8-18.5Q 102.5-18.5  103.44999999999999-17.5Q 104.39999999999999-16.5  104.39999999999999-15L 104.39999999999999-15Q 104.39999999999999-13.2  102.8-10.65Q 101.19999999999999-8.1  98.35-5.55Q 95.5-3  90.8-1.2Q 86.1 0.6  80.69999999999999 0.6ZM 73.89999999999999-28L 73.89999999999999-28Q 80.8-28.1  81.39999999999999-28.1L 81.39999999999999-28.1Q 82.89999999999999-28.1  83.6-29.9L 83.6-29.9Q 84.1-31.2  84.1-33.5L 84.1-33.5Q 84.1-39.8  80.3-39.8L 80.3-39.8Q 78.89999999999999-39.8  77.55-38.3Q 76.19999999999999-36.8  75.19999999999999-34.05Q 74.19999999999999-31.3  73.89999999999999-28ZM 134.2-30.8L 134.2-10.7Q 134.2-4.7  131.7-2.35Q 129.2 0  122.8 0L 122.8 0Q 116.89999999999999 0  114.8-2.75Q 112.69999999999999-5.5  112.69999999999999-11.8L 112.69999999999999-11.8L 112.69999999999999-36.4Q 112.69999999999999-39.8  113.89999999999999-42.35Q 115.1-44.9  117.39999999999999-46.3Q 119.69999999999999-47.7  122.8-47.7L 122.8-47.7Q 130.4-47.7  132.79999999999998-43.3L 132.79999999999998-43.3Q 138.6-47.7  144-47.7L 144-47.7Q 154.5-47.7  154.5-37.7L 154.5-37.7Q 154.5-33.7  152.2-31.2Q 149.89999999999998-28.7  146.2-28.7L 146.2-28.7Q 144-28.7  142.64999999999998-29.6Q 141.3-30.5  140.14999999999998-31.4Q 139-32.3  137.5-32.3L 137.5-32.3Q 135.29999999999998-32.3  134.2-30.8L 134.2-30.8ZM 219.20000000000002-8.3L 219.20000000000002-26.4Q 219.20000000000002-32  214.70000000000002-32L 214.70000000000002-32Q 212.70000000000002-32  211.70000000000002-29.7Q 210.70000000000002-27.4  210.70000000000002-23.9L 210.70000000000002-23.9Q 210.70000000000002-18.6  210.55-15.1Q 210.4-11.6  209.9-8.8Q 209.4-6  208.70000000000002-4.4Q 208-2.8  206.8-1.75Q 205.60000000000002-0.7  204.10000000000002-0.35Q 202.60000000000002 0  200.3 0L 200.3 0Q 196.8 0  194.65-1Q 192.5-2  191.60000000000002-3.8Q 190.70000000000002-5.6  190.70000000000002-8.3L 190.70000000000002-8.3L 190.70000000000002-26.4Q 190.70000000000002-32  186.20000000000002-32L 186.20000000000002-32Q 184.4-32  183.25-29.95Q 182.10000000000002-27.9  182.10000000000002-24.6L 182.10000000000002-24.6L 182.10000000000002-10.7Q 182.10000000000002-4.7  179.60000000000002-2.35Q 177.10000000000002 0  170.8 0L 170.8 0Q 164.9 0  162.75-2.75Q 160.60000000000002-5.5  160.60000000000002-11.8L 160.60000000000002-11.8L 160.60000000000002-36.4Q 160.60000000000002-41.5  163.35000000000002-44.6Q 166.10000000000002-47.7  170.70000000000002-47.7L 170.70000000000002-47.7Q 178.9-47.7  181.10000000000002-42.4L 181.10000000000002-42.4Q 184.9-45.2  188.55-46.3Q 192.20000000000002-47.4  197.10000000000002-47.4L 197.10000000000002-47.4Q 204.5-47.4  207.8-41L 207.8-41Q 208.3-41.4  208.8-41.8L 208.8-41.8Q 216.5-47.4  227.70000000000002-47.4L 227.70000000000002-47.4Q 234.8-47.4  237.9-42Q 241-36.6  241-23.9L 241-23.9Q 241-18.6  240.85000000000002-15.1Q 240.70000000000002-11.6  240.20000000000002-8.8Q 239.70000000000002-6  238.95000000000002-4.4Q 238.20000000000002-2.8  236.85000000000002-1.75Q 235.5-0.7  233.85000000000002-0.35Q 232.20000000000002 0  229.70000000000002 0L 229.70000000000002 0Q 225.9 0  223.55-1Q 221.20000000000002-2  220.20000000000002-3.8Q 219.20000000000002-5.6  219.20000000000002-8.3L 219.20000000000002-8.3ZM 273.90000000000003-48.4L 273.90000000000003-48.4Q 283.20000000000005-48.4  289.40000000000003-44.6Q 295.6-40.8  295.6-36.3L 295.6-36.3Q 295.6-35  294.50000000000006-33.9Q 293.40000000000003-32.8  291.70000000000005-32.8L 291.70000000000005-32.8Q 290.20000000000005-32.8  288.40000000000003-33.85Q 286.6-34.9  285.00000000000006-36.1Q 283.40000000000003-37.3  280.80000000000007-38.3Q 278.20000000000005-39.3  275.30000000000007-39.3L 275.30000000000007-39.3Q 271.40000000000003-39.3  271.40000000000003-36.9L 271.40000000000003-36.9Q 271.40000000000003-35.2  273.40000000000003-34.2Q 275.40000000000003-33.2  279.25000000000006-32.1Q 283.1-31  285.1-30L 285.1-30Q 292.6-27.1  295.40000000000003-23.75Q 298.20000000000005-20.4  298.20000000000005-14.9L 298.20000000000005-14.9Q 298.20000000000005-12.2  296.70000000000005-9.55Q 295.20000000000005-6.9  292.20000000000005-4.55Q 289.20000000000005-2.2  284.05000000000007-0.75Q 278.90000000000003 0.7  272.30000000000007 0.7L 272.30000000000007 0.7Q 259.40000000000003 0.7  253.00000000000003-5.2L 253.00000000000003-5.2Q 249.90000000000003-8.1  249.90000000000003-11.2L 249.90000000000003-11.2Q 249.90000000000003-13.1  251.15000000000003-14.2Q 252.40000000000003-15.3  254.70000000000005-15.3L 254.70000000000005-15.3Q 257.00000000000006-15.3  261.70000000000005-13.05Q 266.40000000000003-10.8  270.40000000000003-10.8L 270.40000000000003-10.8Q 275.90000000000003-10.8  275.90000000000003-13.5L 275.90000000000003-13.5Q 275.90000000000003-14.9  273.00000000000006-15.75Q 270.1-16.6  265.40000000000003-17.8Q 260.70000000000005-19  257.90000000000003-20.8L 257.90000000000003-20.8Q 253.50000000000003-22.7  251.75000000000003-25.55Q 250.00000000000003-28.4  250.00000000000003-32.5L 250.00000000000003-32.5Q 250.00000000000003-39.5  256.65000000000003-43.95Q 263.30000000000007-48.4  273.90000000000003-48.4Z"></path>
</svg>
