<?xml version="1.0" standalone="no"?>
<!DOCTYPE svg PUBLIC "-//W3C//DTD SVG 20010904//EN"
 "http://www.w3.org/TR/2001/REC-SVG-20010904/DTD/svg10.dtd">
<svg version="1.0" xmlns="http://www.w3.org/2000/svg"
 width="519.000000pt" height="519.000000pt" viewBox="0 0 519.000000 519.000000"
 preserveAspectRatio="xMidYMid meet">
<metadata>
Created by potrace 1.14, written by Peter Selinger 2001-2017
</metadata>
<g transform="translate(0.000000,519.000000) scale(0.100000,-0.100000)"
fill="#000000" stroke="none">
<path d="M2468 5124 c-91 -14 -188 -44 -276 -85 -35 -16 -65 -29 -68 -29 -2 0
-34 -19 -71 -41 -302 -185 -474 -428 -461 -653 6 -112 53 -185 148 -228 36
-17 64 -21 137 -20 141 1 204 26 239 94 17 33 19 42 29 119 12 96 70 175 163
223 17 9 32 14 32 10 0 -4 6 -2 13 4 18 15 80 24 202 27 202 5 324 -50 401
-181 55 -94 57 -107 59 -546 3 -381 4 -410 22 -445 26 -50 73 -80 136 -88 83
-10 347 -12 407 -2 125 19 230 98 271 205 18 47 22 80 22 187 1 122 -8 289
-18 317 -2 7 -7 31 -10 53 -26 183 -104 390 -197 528 -128 188 -431 413 -678
501 -159 57 -345 76 -502 50z"/>
<path d="M2494 4285 c-37 -16 -59 -41 -79 -89 -17 -41 -20 -91 -30 -686 -2
-162 -7 -305 -10 -317 -3 -13 -7 -32 -9 -43 -9 -39 -51 -102 -78 -116 -61 -32
-114 -12 -256 96 -82 62 -99 71 -137 72 -55 1 -92 -22 -111 -67 -29 -70 -22
-87 69 -166 45 -40 93 -83 107 -95 31 -27 263 -225 323 -276 83 -70 86 -85 82
-383 -12 -735 -13 -764 -37 -804 -45 -74 -98 -100 -160 -79 -38 13 -132 74
-201 131 -57 47 -115 59 -166 33 -39 -21 -73 -91 -63 -130 7 -24 102 -112 413
-378 173 -148 187 -173 187 -328 -1 -58 -5 -118 -11 -134 -15 -43 -51 -79
-104 -106 -44 -22 -61 -24 -216 -26 -211 -2 -246 -14 -289 -98 -44 -85 -4
-196 86 -237 39 -17 81 -18 741 -19 461 0 713 4 738 11 84 23 143 128 118 210
-16 52 -63 105 -109 120 -22 7 -103 13 -202 14 -176 1 -203 7 -251 58 -53 55
-58 88 -64 397 -15 725 -14 772 5 816 22 50 60 90 131 137 30 19 70 50 90 69
46 43 80 72 214 188 181 156 185 160 185 193 0 40 -27 93 -58 113 -15 10 -44
17 -69 16 -37 0 -55 -10 -145 -78 -122 -91 -157 -108 -216 -101 -55 6 -103 50
-138 125 -27 59 -25 21 -39 867 -16 1020 -13 962 -46 1027 -32 62 -126 93
-195 63z"/>
<path d="M1308 3864 c-174 -30 -312 -104 -439 -236 -237 -244 -247 -643 -23
-924 56 -70 128 -131 204 -171 l55 -30 311 1 c292 1 313 2 333 20 25 23 41 74
34 110 -7 35 -54 82 -90 89 -41 8 -109 61 -138 107 -42 67 -58 148 -53 279 5
137 27 199 90 257 60 53 97 66 207 66 57 0 106 6 121 13 88 45 125 147 80 220
-48 77 -202 167 -327 190 -16 3 -39 7 -53 11 -52 12 -238 10 -312 -2z"/>
<path d="M3642 3129 c-168 -19 -305 -76 -395 -162 -75 -73 -86 -133 -37 -212
39 -63 78 -78 205 -80 102 -1 116 -3 157 -28 55 -32 94 -76 121 -137 16 -35
21 -72 23 -165 4 -130 -8 -201 -44 -272 -23 -45 -79 -103 -99 -103 -7 0 -13
-4 -13 -10 0 -5 -7 -10 -16 -10 -39 0 -87 -34 -105 -76 -23 -50 -17 -93 17
-129 26 -29 2 -27 417 -26 272 1 275 2 370 65 187 124 318 375 320 611 1 323
-215 602 -547 704 -103 32 -251 44 -374 30z"/>
<path d="M1317 2174 c-1 -1 -29 -5 -62 -8 -245 -24 -498 -194 -605 -405 -54
-109 -71 -172 -76 -296 -11 -283 153 -572 389 -685 48 -22 55 -23 369 -23
l319 0 26 25 c17 17 27 40 30 69 7 62 -25 106 -95 134 -144 55 -203 177 -197
402 4 118 28 190 82 247 58 61 121 84 223 81 100 -2 134 7 177 48 53 49 70
123 42 178 -52 104 -242 203 -429 224 -56 6 -189 12 -193 9z"/>
</g>
</svg>
